<svg width="1000" height="1000" viewBox="0 0 1000 1000" fill="none" xmlns="http://www.w3.org/2000/svg">
<g clip-path="url(#clip0_35_10)">
<rect width="1000" height="1000" fill="white"/>
<g clip-path="url(#clip1_35_10)">
<path d="M234.835 234.835C88.9942 380.676 88.9942 619.324 234.835 765.165C380.676 911.006 619.324 911.006 765.165 765.165C911.006 619.324 911.006 380.676 765.165 234.835C619.324 88.9942 380.676 88.9942 234.835 234.835ZM821.783 441.016C823.778 451.908 813.538 460.613 802.819 457.834L672.664 424.09C660.742 420.999 649.945 431.973 653.228 443.844L731.395 726.446C731.781 727.842 731.386 729.338 730.362 730.362C724.273 736.451 717.728 742.083 710.965 747.499C702.139 754.567 689.032 749.996 686.074 739.082L651.531 611.632C648.288 599.664 633.252 595.775 624.612 604.669L424.864 810.291C421.079 814.188 415.562 815.949 410.308 814.571C404.005 812.916 397.701 810.864 391.398 808.597C380.671 804.739 377.825 790.994 385.783 782.831L479.053 687.17C487.639 678.364 483.493 663.567 471.582 660.504L382.333 637.554L193.282 590.292C187.284 588.792 182.693 583.969 181.356 577.932C180.107 572.295 178.783 566.583 177.565 560.977C175.185 550.023 185.148 541.133 195.998 543.946L325.678 577.567C337.6 580.658 348.398 569.684 345.115 557.814L266.948 275.211C266.562 273.815 266.956 272.319 267.981 271.295C274.098 265.178 280.676 259.521 287.472 254.083C296.275 247.037 309.344 251.56 312.346 262.428L346.846 387.344C350.111 399.164 364.912 403.069 373.583 394.398L438.681 329.3L440.338 327.643L575.139 189.67C578.923 185.796 584.425 184.048 589.663 185.422C595.976 187.077 602.289 189.132 608.602 191.403C619.329 195.261 622.175 209.006 614.217 217.169L520.903 312.876C512.327 321.671 516.452 336.45 528.343 339.533L806.469 411.64C811.716 413 815.965 416.912 817.434 422.13C819.135 428.174 820.585 434.469 821.783 441.016Z" fill="black"/>
<path d="M369.075 465.197L403.878 596.122L534.803 630.925L630.925 534.803L596.122 403.878L465.197 369.075L369.075 465.197Z" fill="black"/>
</g>
</g>
<defs>
<clipPath id="clip0_35_10">
<rect width="1000" height="1000" fill="white"/>
</clipPath>
<clipPath id="clip1_35_10">
<rect width="750" height="750" fill="white" transform="translate(-30.3301 500) rotate(-45)"/>
</clipPath>
</defs>
</svg>
